<svg xmlns="http://www.w3.org/2000/svg" viewBox="0 0 49.31 70"><defs><style>.cls-1{fill:#073460;}</style></defs><title>blue_sxa</title><g id="Calque_2" data-name="Calque 2"><g id="Layer_1" data-name="Layer 1"><path class="cls-1" d="M46.52,0H2.8A2.8,2.8,0,0,0,0,2.8V67.21A2.79,2.79,0,0,0,2.8,70H46.52a2.79,2.79,0,0,0,2.79-2.79V2.8A2.79,2.79,0,0,0,46.52,0Zm.63,67.21a.63.63,0,0,1-.63.63H2.8a.64.64,0,0,1-.64-.63V25.31h45Zm0-44.06h-45V2.8a.64.64,0,0,1,.64-.64H46.52a.63.63,0,0,1,.63.64Z"/><rect class="cls-1" x="8.39" y="30.27" width="6.77" height="1.94"/><rect class="cls-1" x="8.39" y="37.6" width="6.77" height="1.94"/><rect class="cls-1" x="8.39" y="44.93" width="6.77" height="1.94"/><rect class="cls-1" x="8.39" y="52.27" width="6.77" height="1.94"/><rect class="cls-1" x="8.39" y="59.6" width="6.77" height="1.94"/><rect class="cls-1" x="21.27" y="30.27" width="6.77" height="1.94"/><rect class="cls-1" x="21.27" y="37.6" width="6.77" height="1.94"/><rect class="cls-1" x="21.27" y="44.93" width="6.77" height="1.94"/><rect class="cls-1" x="21.27" y="52.27" width="6.77" height="1.94"/><rect class="cls-1" x="21.27" y="59.6" width="6.77" height="1.94"/><rect class="cls-1" x="34.33" y="30.27" width="6.77" height="1.94"/><rect class="cls-1" x="34.33" y="37.6" width="6.77" height="1.94"/><rect class="cls-1" x="34.33" y="44.93" width="6.77" height="1.94"/><rect class="cls-1" x="34.33" y="52.27" width="6.77" height="1.94"/><rect class="cls-1" x="34.33" y="59.6" width="6.77" height="1.94"/><path class="cls-1" d="M7.33,18.44H42V6.29H7.33ZM9.27,8.23H40V16.5H9.27Z"/></g></g></svg>