<svg xmlns="http://www.w3.org/2000/svg" viewBox="0 0 53.52 70"><defs><style>.cls-1{fill:#073460;}</style></defs><title>blue_sxt</title><g id="Calque_2" data-name="Calque 2"><g id="Layer_1" data-name="Layer 1"><path class="cls-1" d="M36.09,23a1.73,1.73,0,0,0-1.72,1.72V55a1.72,1.72,0,0,0,1.72,1.72h4.8A1.73,1.73,0,0,0,42.61,55V24.67A1.73,1.73,0,0,0,40.89,23ZM40.89,55H36.08V24.79h4.8Z"/><path class="cls-1" d="M29.53,30.06h-4.8A1.72,1.72,0,0,0,23,31.78V55a1.72,1.72,0,0,0,1.72,1.72h4.8A1.72,1.72,0,0,0,31.24,55V31.78A1.72,1.72,0,0,0,29.53,30.06Zm-4.8,25V31.9h4.79V55Z"/><path class="cls-1" d="M18.16,37.16H13.37a1.72,1.72,0,0,0-1.72,1.72V55a1.72,1.72,0,0,0,1.72,1.72h4.79A1.72,1.72,0,0,0,19.88,55V38.88A1.72,1.72,0,0,0,18.16,37.16Zm0,17.88h-4.8V39h4.8Z"/><path class="cls-1" d="M53,11,42.53.54A1.85,1.85,0,0,0,41.22,0H1.84A1.84,1.84,0,0,0,0,1.84V68.16A1.84,1.84,0,0,0,1.84,70H51.67a1.84,1.84,0,0,0,1.85-1.84V12.29A1.85,1.85,0,0,0,53,11ZM42.15,2.76l8.6,8.61h-8.6Zm9.52,65.4H1.84V1.84H40.3V12.29a.93.93,0,0,0,.93.92H51.67Z"/></g></g></svg>