<svg xmlns="http://www.w3.org/2000/svg" viewBox="0 0 70 61.79"><defs><style>.cls-1{fill:#073460;}</style></defs><title>blue_newfeatures</title><g id="Calque_2" data-name="Calque 2"><g id="Layer_1" data-name="Layer 1"><path class="cls-1" d="M46.3,39.52l-9.82-5.71L58,21.42l9.82,5.7Zm10.92,7.85L35.74,59.76V35.1L45.93,41a.75.75,0,0,0,.74,0l10.55-6.1ZM35,33.07c-.41,0-21.45-12.51-21.45-12.51S34.59,8,35,8,56.41,20.56,56.41,20.56,35.41,33.07,35,33.07Zm-.75,26.69L12.77,47.37V34.92L23.33,41a.73.73,0,0,0,.74,0L34.26,35.1Zm-32-32.64L12,21.42l21.48,12.4-9.81,5.7ZM2.22,14,23.7,1.6l9.81,5.71L12,19.71ZM46.3,1.6,67.78,14,58,19.71,36.48,7.31ZM69.63,26.48,59.44,20.56l10.19-5.92A.74.74,0,0,0,70,14a.73.73,0,0,0-.37-.64L46.67.1a.73.73,0,0,0-.74,0L35,6.45,24.07.1a.73.73,0,0,0-.74,0L.36,13.36A.74.74,0,0,0,0,14a.75.75,0,0,0,.36.64l10.2,5.92L.36,26.48a.76.76,0,0,0-.36.65.73.73,0,0,0,.36.63l10.93,6.31V47.8a.74.74,0,0,0,.37.64l23,13.26.05,0a.15.15,0,0,1,.07,0,1.09,1.09,0,0,0,.26,0,.93.93,0,0,0,.24,0l.07,0,.06,0,23-13.26a.74.74,0,0,0,.37-.64V34.07l10.93-6.31a.72.72,0,0,0,.37-.63.74.74,0,0,0-.37-.65"/></g></g></svg>