<svg xmlns="http://www.w3.org/2000/svg" viewBox="0 0 53.52 70"><defs><style>.cls-1{fill:#073460;}</style></defs><title>blue_pdf</title><g id="Calque_2" data-name="Calque 2"><g id="Layer_1" data-name="Layer 1"><path class="cls-1" d="M53,11,42.53.54A1.85,1.85,0,0,0,41.22,0H1.84A1.84,1.84,0,0,0,0,1.84V68.16A1.84,1.84,0,0,0,1.84,70H51.67a1.84,1.84,0,0,0,1.85-1.84V12.29A1.85,1.85,0,0,0,53,11ZM42.15,2.76l8.6,8.61h-8.6Zm9.52,65.4H1.84V1.84H40.3V12.29a.93.93,0,0,0,.93.92H51.67Z"/><path class="cls-1" d="M34.07,38.79c-6-2.84-8-9.8-8.21-10.51.32-2.12.54-7.44.55-7.67a.14.14,0,0,0,0-.09c-.07-.29-.22-.39-.34-.41h0c.22,0,.46-.19.46-1.25a1.53,1.53,0,0,0-1.69-1.72,1.84,1.84,0,0,0-1.37.45c-.53.54-.72,1.57-.68,3.82A28.93,28.93,0,0,0,24,28.52c-6.1,17.35-12.17,22.22-12.22,22.27a4.78,4.78,0,0,1-1.14.66c.16-1.79,3.68-5,5.08-6.12.1-.06.38-.27.29-.56a.5.5,0,0,0-.52-.28.45.45,0,0,0-.2,0C9.2,48.12,9,51.09,8.94,51.41c0,1.17,1.8,1.46,2.05,1.5,3.2,0,7.81-8.12,8.42-9.22a65.78,65.78,0,0,1,14.1-2.94c3.26,1.65,6.28,2.58,8.33,2.58h.08A2.66,2.66,0,0,0,44,42.65a1,1,0,0,0,.23-.61l0,0a1.68,1.68,0,0,0,0-1.85C42.87,38,35.3,38.66,34.07,38.79Zm-9.2-20.53c.47,0,.67,1,.71,1.3,0,.13.12.48.38.54a.5.5,0,0,0-.41.34.16.16,0,0,0,0,.09,41.9,41.9,0,0,1-.68,4.32C24.18,22.16,24.4,18.47,24.87,18.26ZM20.19,42.35a61.57,61.57,0,0,0,4.86-10.59A18.67,18.67,0,0,0,31,39.27,57.55,57.55,0,0,0,20.19,42.35Zm23.22-1a.89.89,0,0,1,.27.36c-1.71.38-4.64-.61-6.25-1.24C41.47,40.22,42.91,40.89,43.41,41.34Z"/></g></g></svg>