<svg xmlns="http://www.w3.org/2000/svg" viewBox="0 0 70 51.93"><defs><style>.cls-1{fill:#073460;}</style></defs><title>blue_faq</title><g id="Calque_2" data-name="Calque 2"><g id="Layer_1" data-name="Layer 1"><path class="cls-1" d="M36.07,0C17.35,0,2.13,11.29,2.13,25.18a20.38,20.38,0,0,0,4.6,12.58L.11,50.55a.94.94,0,0,0,.13,1.07,1,1,0,0,0,.71.31.83.83,0,0,0,.34-.07L16.67,45.8a42.27,42.27,0,0,0,19.4,4.55C54.78,50.35,70,39.06,70,25.18S54.78,0,36.07,0Zm0,48.46a40.21,40.21,0,0,1-19-4.59.92.92,0,0,0-.45-.1h0a.89.89,0,0,0-.67.3L3,49.18,8.5,38.46a1,1,0,0,0,.12-1.33,18.74,18.74,0,0,1-4.6-12C4,12.34,18.4,1.89,36.07,1.89s32,10.45,32,23.29S53.73,48.46,36.07,48.46Z"/><path class="cls-1" d="M33,36.76a1.94,1.94,0,0,0-2.19,2.11A2,2,0,0,0,33,41a1.92,1.92,0,0,0,2.14-2.15A1.9,1.9,0,0,0,33,36.76Z"/><path class="cls-1" d="M35.24,10.15c-6.06,0-8,3.79-8.59,6.53l1.81.38c1.09-4.3,3.62-5.23,6.69-5.23,3.37,0,6.19,1.14,6.19,6.28,0,5.6-4.33,7.07-9.22,7.54V33H34V27.08c5-.8,9.39-3,9.39-9.31C43.37,12,39.66,10.15,35.24,10.15Z"/></g></g></svg>