<svg xmlns="http://www.w3.org/2000/svg" viewBox="0 0 71 62.79"><defs><style>.cls-1{fill:#fff;stroke:#fff;stroke-miterlimit:10;}</style></defs><title>whiteFichier 1</title><g id="Calque_2" data-name="Calque 2"><g id="Layer_1" data-name="Layer 1"><path class="cls-1" d="M46.8,40,37,34.31,58.46,21.92l9.82,5.7Zm10.92,7.85L36.24,60.26V35.6l10.18,5.92a.75.75,0,0,0,.74,0l10.55-6.1ZM35.5,33.57c-.41,0-21.45-12.51-21.45-12.51S35.09,8.54,35.5,8.54,56.91,21.06,56.91,21.06,35.91,33.57,35.5,33.57Zm-.75,26.69L13.27,47.87V35.42l10.56,6.1a.73.73,0,0,0,.74,0L34.76,35.6Zm-32-32.64,9.81-5.7L34,34.32,24.2,40Zm0-13.12L24.2,2.1,34,7.81,12.53,20.21ZM46.8,2.1,68.28,14.5l-9.82,5.71L37,7.81ZM70.13,27,59.94,21.06l10.19-5.92a.74.74,0,0,0,.37-.64.73.73,0,0,0-.37-.64L47.17.6a.73.73,0,0,0-.74,0L35.5,7,24.57.6a.73.73,0,0,0-.74,0L.86,13.86a.74.74,0,0,0-.36.64.75.75,0,0,0,.36.64l10.2,5.92L.86,27a.76.76,0,0,0-.36.65.73.73,0,0,0,.36.63l10.93,6.31V48.3a.74.74,0,0,0,.37.64l23,13.26.05,0a.15.15,0,0,1,.07,0,1.09,1.09,0,0,0,.26,0,.93.93,0,0,0,.24,0l.07,0,.06,0,23-13.26a.74.74,0,0,0,.37-.64V34.57l10.93-6.31a.72.72,0,0,0,.37-.63.74.74,0,0,0-.37-.65"/></g></g></svg>