<svg xmlns="http://www.w3.org/2000/svg" viewBox="0 0 71 52.93"><defs><style>.cls-1{fill:#fff;stroke:#fff;stroke-miterlimit:10;}</style></defs><title>whiteFichier 1</title><g id="Calque_2" data-name="Calque 2"><g id="Layer_1" data-name="Layer 1"><path class="cls-1" d="M36.57.5C17.85.5,2.63,11.79,2.63,25.68a20.38,20.38,0,0,0,4.6,12.58L.61,51.05a.94.94,0,0,0,.13,1.07,1,1,0,0,0,.71.31.83.83,0,0,0,.34-.07L17.17,46.3a42.27,42.27,0,0,0,19.4,4.55c18.71,0,33.93-11.29,33.93-25.17S55.28.5,36.57.5Zm0,48.46a40.21,40.21,0,0,1-19-4.59.92.92,0,0,0-.45-.1h0a.89.89,0,0,0-.67.3l-13,5.11L9,39a1,1,0,0,0,.12-1.33,18.74,18.74,0,0,1-4.6-12C4.52,12.84,18.9,2.39,36.57,2.39s32,10.45,32,23.29S54.23,49,36.57,49Z"/><path class="cls-1" d="M33.51,37.26a1.94,1.94,0,0,0-2.19,2.11,2,2,0,0,0,2.19,2.15,1.92,1.92,0,0,0,2.14-2.15A1.9,1.9,0,0,0,33.51,37.26Z"/><path class="cls-1" d="M35.74,10.65c-6.06,0-8,3.79-8.59,6.53l1.81.38c1.09-4.3,3.62-5.23,6.69-5.23,3.37,0,6.19,1.14,6.19,6.28,0,5.6-4.33,7.07-9.22,7.54v7.36h1.86V27.58c5-.8,9.39-3,9.39-9.31C43.87,12.46,40.16,10.65,35.74,10.65Z"/></g></g></svg>