<svg xmlns="http://www.w3.org/2000/svg" viewBox="0 0 54.52 71"><defs><style>.cls-1{fill:#fff;stroke:#fff;stroke-miterlimit:10;}</style></defs><title>whiteFichier 1</title><g id="Calque_2" data-name="Calque 2"><g id="Layer_1" data-name="Layer 1"><path class="cls-1" d="M53.48,11.49,43,1A1.85,1.85,0,0,0,41.72.5H2.34A1.84,1.84,0,0,0,.5,2.34V68.66A1.84,1.84,0,0,0,2.34,70.5H52.17A1.84,1.84,0,0,0,54,68.66V12.79A1.85,1.85,0,0,0,53.48,11.49ZM42.65,3.26l8.6,8.61h-8.6Zm9.52,65.4H2.34V2.34H40.8V12.79a.93.93,0,0,0,.93.92H52.17Z"/><path class="cls-1" d="M34.57,39.29c-6-2.84-8-9.8-8.21-10.51.32-2.12.54-7.44.55-7.67a.14.14,0,0,0,0-.09c-.07-.29-.22-.39-.34-.41h0c.22,0,.46-.19.46-1.25a1.53,1.53,0,0,0-1.69-1.72,1.84,1.84,0,0,0-1.37.45c-.53.54-.72,1.57-.68,3.82A28.93,28.93,0,0,0,24.51,29c-6.1,17.35-12.17,22.22-12.22,22.27a4.78,4.78,0,0,1-1.14.66c.16-1.79,3.68-5,5.08-6.12.1-.06.38-.27.29-.56A.5.5,0,0,0,16,45a.45.45,0,0,0-.2,0c-6.1,3.59-6.35,6.56-6.36,6.88,0,1.17,1.8,1.46,2.05,1.5,3.2,0,7.81-8.12,8.42-9.22A65.78,65.78,0,0,1,34,41.25c3.26,1.65,6.28,2.58,8.33,2.58h.08a2.66,2.66,0,0,0,2.11-.68,1,1,0,0,0,.23-.61l0,0a1.68,1.68,0,0,0,0-1.85C43.37,38.49,35.8,39.16,34.57,39.29Zm-9.2-20.53c.47,0,.67,1,.71,1.3,0,.13.12.48.38.54a.5.5,0,0,0-.41.34A.16.16,0,0,0,26,21a41.9,41.9,0,0,1-.68,4.32C24.68,22.66,24.9,19,25.37,18.76ZM20.69,42.85a61.57,61.57,0,0,0,4.86-10.59,18.67,18.67,0,0,0,5.91,7.51A57.55,57.55,0,0,0,20.69,42.85Zm23.22-1a.89.89,0,0,1,.27.36c-1.71.38-4.64-.61-6.25-1.24C42,40.72,43.41,41.39,43.91,41.84Z"/></g></g></svg>