<svg xmlns="http://www.w3.org/2000/svg" viewBox="0 0 54.52 71"><defs><style>.cls-1{fill:#fff;stroke:#fff;stroke-miterlimit:10;}</style></defs><title>whiteFichier 1</title><g id="Calque_2" data-name="Calque 2"><g id="Layer_1" data-name="Layer 1"><path class="cls-1" d="M36.59,23.45a1.73,1.73,0,0,0-1.72,1.72V55.53a1.72,1.72,0,0,0,1.72,1.72h4.8a1.73,1.73,0,0,0,1.72-1.72V25.17a1.73,1.73,0,0,0-1.72-1.72Zm4.8,32.09H36.58V25.29h4.8Z"/><path class="cls-1" d="M30,30.56h-4.8a1.72,1.72,0,0,0-1.72,1.72V55.53a1.72,1.72,0,0,0,1.72,1.72H30a1.72,1.72,0,0,0,1.71-1.72V32.28A1.72,1.72,0,0,0,30,30.56Zm-4.8,25V32.4H30V55.54Z"/><path class="cls-1" d="M18.66,37.66H13.87a1.72,1.72,0,0,0-1.72,1.72V55.53a1.72,1.72,0,0,0,1.72,1.72h4.79a1.72,1.72,0,0,0,1.72-1.72V39.38A1.72,1.72,0,0,0,18.66,37.66Zm0,17.88h-4.8v-16h4.8Z"/><path class="cls-1" d="M53.48,11.49,43,1A1.85,1.85,0,0,0,41.72.5H2.34A1.84,1.84,0,0,0,.5,2.34V68.66A1.84,1.84,0,0,0,2.34,70.5H52.17A1.84,1.84,0,0,0,54,68.66V12.79A1.85,1.85,0,0,0,53.48,11.49ZM42.65,3.26l8.6,8.61h-8.6Zm9.52,65.4H2.34V2.34H40.8V12.79a.93.93,0,0,0,.93.92H52.17Z"/></g></g></svg>