<svg xmlns="http://www.w3.org/2000/svg" viewBox="0 0 50.31 71"><defs><style>.cls-1{fill:#fff;stroke:#fff;stroke-miterlimit:10;}</style></defs><title>whiteFichier 1</title><g id="Calque_2" data-name="Calque 2"><g id="Layer_1" data-name="Layer 1"><path class="cls-1" d="M47,.5H3.3A2.8,2.8,0,0,0,.5,3.3V67.71A2.79,2.79,0,0,0,3.3,70.5H47a2.79,2.79,0,0,0,2.79-2.79V3.3A2.79,2.79,0,0,0,47,.5Zm.63,67.21a.63.63,0,0,1-.63.63H3.3a.64.64,0,0,1-.64-.63V25.81h45Zm0-44.06h-45V3.3a.64.64,0,0,1,.64-.64H47a.63.63,0,0,1,.63.64Z"/><rect class="cls-1" x="8.89" y="30.77" width="6.77" height="1.94"/><rect class="cls-1" x="8.89" y="38.1" width="6.77" height="1.94"/><rect class="cls-1" x="8.89" y="45.43" width="6.77" height="1.94"/><rect class="cls-1" x="8.89" y="52.77" width="6.77" height="1.94"/><rect class="cls-1" x="8.89" y="60.1" width="6.77" height="1.94"/><rect class="cls-1" x="21.77" y="30.77" width="6.77" height="1.94"/><rect class="cls-1" x="21.77" y="38.1" width="6.77" height="1.94"/><rect class="cls-1" x="21.77" y="45.43" width="6.77" height="1.94"/><rect class="cls-1" x="21.77" y="52.77" width="6.77" height="1.94"/><rect class="cls-1" x="21.77" y="60.1" width="6.77" height="1.94"/><rect class="cls-1" x="34.83" y="30.77" width="6.77" height="1.94"/><rect class="cls-1" x="34.83" y="38.1" width="6.77" height="1.94"/><rect class="cls-1" x="34.83" y="45.43" width="6.77" height="1.94"/><rect class="cls-1" x="34.83" y="52.77" width="6.77" height="1.94"/><rect class="cls-1" x="34.83" y="60.1" width="6.77" height="1.94"/><path class="cls-1" d="M7.83,18.94H42.48V6.79H7.83ZM9.77,8.73H40.54V17H9.77Z"/></g></g></svg>